True Blood S05E02 HDTV XviD-Atilla82

 
http://www.imdb.com/title/tt0844441/
 


In a world where vampires have "come out of the coffin", Sookie Stackhouse, a telepathic waitress, discovers a new world of different creatures when she meets Bill Compton, a vampire.



General
Complete name : True.Blood.S05E02.HDTV.XviD-Atilla82.avi
Format : AVI
Format/Info : Audio Video Interleave
File size : 396 MiB
Duration : 56mn 31s
Overall bit rate : 978 Kbps
Writing application : Nandub v1.0rc2
Writing library : Nandub build 1853/release

Video
ID : 0
Format : MPEG-4 Visual
Format profile : Advanced Simple@L5
Format settings, BVOP : No
Format settings, QPel : Yes
Format settings, GMC : No warppoints
Format settings, Matrix : Default (H.263)
Codec ID : XVID
Codec ID/Hint : XviD
Duration : 56mn 31s
Bit rate : 837 Kbps
Width : 680 pixels
Height : 380 pixels
Display aspect ratio : 16:9
Frame rate : 23.976 fps
Color space : YUV
Chroma subsampling : 4:2:0
Bit depth : 8 bits
Scan type : Progressive
Compression mode : Lossy
Bits/(Pixel*Frame) : 0.135
Stream size : 339 MiB (86%)
Writing library : XviD 64

Audio
ID : 1
Format : MPEG Audio
Codec ID : 55
Codec ID/Hint : MP3
Duration : 56mn 31s
Bit rate : 128 Kbps
Channel(s) : 2 channels
Sampling rate : 48.0 KHz
Compression mode : Lossy
Stream size : 51.7 MiB (13%)
Alignment : Split accross interleaves
Interleave, duration : 24 ms (0.58 video frame)
Interleave, preload duration : 484 ms


SCREENSHOTS 
http://www.pohrani.com/f/2g/Pq/4vJEGOmf/truebloods05e02hdtvxvid-.jpg
